<svg xmlns="http://www.w3.org/2000/svg" width="60" height="60" viewBox="0 0 32 32">
    <path class="a" d="M0,0H72V72H0Z" fill="none"/>
    <g transform="translate(2, 0)">
        <path class="b"
              fill="#fff"
              d="M362.673-263.564a21.112,21.112,0,0,0-14.55-3.062,13.28,13.28,0,0,0-.484,3.549c0,.392.021.78.054,1.165a16.649,16.649,0,0,1,12.515,2.216,16.6,16.6,0,0,1,6.724,8.442,13.3,13.3,0,0,0,3.777-2.877A21.058,21.058,0,0,0,362.673-263.564Z"
              transform="translate(-347.639 281.688)"/>
        <path class="b"
              fill="#fff"
              d="M365.811-271.729a25.2,25.2,0,0,1,8.358,8.77,13.239,13.239,0,0,0,.847-4.669v-18.611h-13.27v5.34a13.246,13.246,0,0,0-10.554,5.228A25.248,25.248,0,0,1,365.811-271.729Z"
              transform="translate(-348.474 286.239)"/>
        <path class="b"
              fill="#fff"
              d="M358.244-253.367a12.438,12.438,0,0,0-9.162-1.7,13.312,13.312,0,0,0,3.983,5.143,3.465,3.465,0,0,1,2.812.6v0a3.451,3.451,0,0,1,1.166,1.54,13.251,13.251,0,0,0,4.206.684,13.331,13.331,0,0,0,1.958-.145A12.407,12.407,0,0,0,358.244-253.367Z"
              transform="translate(-347.978 278.973)"/>
    </g>
</svg>
