<?xml version="1.0" encoding="utf-8"?>
<svg viewBox="0 0 24 24" fill="currentColor" width="18px" height="18px" xmlns="http://www.w3.org/2000/svg">
  <path d="M0 0h24v24H0z" fill="none"/>
  <path d="M 12 22 C 7.03 22 3 17.97 3 13 C 3 8.83 5.84 5.33 9.69 4.31 L 12 2 L 14.31 4.31 C 18.16 5.33 21 8.83 21 13 C 21 17.97 16.97 22 12 22 Z M 12 20 C 13.66 20 15 18.66 15 17 C 15 15.34 13.66 14 12 14 C 10.34 14 9 15.34 9 17 C 9 18.66 10.34 20 12 20 Z M 12 5.7 C 9.5 5.7 7.29 6.98 6 8.92 C 6.03 10.91 10 12 12 12 C 13.99 12 17.97 10.91 18 8.92 C 16.71 6.98 14.5 5.7 12 5.7 Z"/>
</svg>